<svg viewBox="0 0 800 800" xmlns="http://www.w3.org/2000/svg"><path d="M486.29240378658443,313.6244423699011 L486.3883520123893,6.651113032019168 M486.3883520123893,6.651113032019168 L504.5614992130861,20.00272422567639 M504.5614992130861,20.00272422567639 L516.6628580152986,35.472922820477606 M516.6628580152986,35.472922820477606 L521.9874531768547,52.16373479681732 M521.9874531768547,52.16373479681732 L520.2234483030406,69.10567191330836 M520.2234483030406,69.10567191330836 L511.47081942509135,85.3139601207053 M511.47081942509135,85.3139601207053 L496.2361292320172,99.8457942956644 M496.2361292320172,99.8457942956644 L475.40358159271227,111.85533327457097 M475.40358159271227,111.85533327457097 L450.1838814027481,120.64315561579963 M450.1838814027481,120.64315561579963 L422.04389331851513,125.69723402154841 M422.04389331851513,125.69723402154841 L392.62112123424083,126.72300745408961 M392.62112123424083,126.72300745408961 L363.62803988932,123.66068577901535 M363.62803988932,123.66068577901535 L336.7520184327744,116.68876368977999 M336.7520184327744,116.68876368977999 L313.5566983630403,106.21352502063849 M313.5566983630403,106.21352502063849 L295.39070796839275,92.84518700637085 M295.39070796839275,92.84518700637085 L283.30918004949325,77.36209350204865 M283.30918004949325,77.36209350204865 L278.0125468231452,60.665172600063215 M278.0125468231452,60.665172600063215 L279.8062389405579,43.72531201957969 M279.8062389405579,43.72531201957969 L288.58347939232465,27.526810100559146 M288.58347939232465,27.526810100559146 L303.8320672678862,13.010230046758352 M303.8320672678862,13.010230046758352 L324.664614910986,1.0179184876852219 M324.664614910986,1.0179184876852219 L349.870417422774,-7.754649723679961 M349.870417422774,-7.754649723679961 L377.9857939304984,-12.798941836889526 M377.9857939304984,-12.798941836889526 L407.37887876380495,-13.822638735515739 M407.37887876380495,-13.822638735515739 L436.34399816783684,-10.76642599084363 M436.34399816783684,-10.76642599084363 L463.2001887419842,-3.8073988120088416 M463.2001887419842,-3.8073988120088416 L486.3883520123893,6.651113032019168 M486.29240378658443,313.6244423699011 L463.1300011686614,303.1542488455728 M463.1300011686614,303.1542488455728 L436.303639808978,296.1874477719373 M436.303639808978,296.1874477719373 L407.37068836874636,293.1278206998868 M407.37068836874636,293.1278206998868 L378.01024606061026,294.15266126487666 M378.01024606061026,294.15266126487666 L349.92609521403267,299.20258857548754 M349.92609521403267,299.20258857548754 L324.74829144002337,307.98495602399 M324.74829144002337,307.98495602399 L303.93889106622413,319.9906613641552 M303.93889106622413,319.9906613641552 L288.70725376810765,334.5234513551229 M288.70725376810765,334.5234513551229 L279.9397794550178,350.7400373100513 M279.9397794550178,350.7400373100513 L278.14809680142747,367.698805045927 M278.14809680142747,367.698805045927 L283.43886040262566,384.4143574132402 M283.43886040262566,384.4143574132402 L295.5069754167779,399.91472389380556 M295.5069754167779,399.91472389380556 L313.65278535806874,413.29797254239946 M313.65278535806874,413.29797254239946 L336.82232888016233,423.7848929539642 M336.82232888016233,423.7848929539642 L363.66847707809427,430.76458898588885 M363.66847707809427,430.76458898588885 L392.62932835607495,433.8303250110277 M392.62932835607495,433.8303250110277 L422.01939198014406,432.80340790441153 M422.01939198014406,432.80340790441153 L450.1280997412127,427.7436942649183 M450.1280997412127,427.7436942649183 L475.31977032682715,418.94607262990064 M475.31977032682715,418.94607262990064 L496.1291706968484,406.92313980591695 M496.1291706968484,406.92313980591695 L511.34694117906747,392.37509563713127 M511.34694117906747,392.37509563713127 L520.0898585803457,376.1487233574742 M520.0898585803457,376.1487233574742 L521.8519199253393,359.1878790778772 M521.8519199253393,359.1878790778772 L516.5332564920478,342.47843565890236 M516.5332564920478,342.47843565890236 L504.4453546387363,326.99096413575626 M504.4453546387363,326.99096413575626 L486.29240378658443,313.6244423699011 M479.6570280268088,317.4553783509819 L458.27608969883875,307.7899931269235 M458.27608969883875,307.7899931269235 L433.51259695580666,301.3586406627593 M433.51259695580666,301.3586406627593 L406.80427388442706,298.53415322622436 M406.80427388442706,298.53415322622436 L379.70126750592374,299.4802342198496 M379.70126750592374,299.4802342198496 L353.7765689751462,304.1420540875904 M353.7765689751462,304.1420540875904 L330.5350293941531,312.2493938730657 M330.5350293941531,312.2493938730657 L311.3263503053131,323.3321952525026 M311.3263503053131,323.3321952525026 L297.2668722606165,336.7476182096841 M297.2668722606165,336.7476182096841 L289.17468768638076,351.71711937047746 M289.17468768638076,351.71711937047746 L287.5218770745353,367.3714454220709 M287.5218770745353,367.3714454220709 L292.40664925426734,382.8009654611973 M292.40664925426734,382.8009654611973 L303.5471542610612,397.1085354355595 M303.5471542610612,397.1085354355595 L320.29738332070815,409.4617121200128 M320.29738332070815,409.4617121200128 L341.6844062123686,419.1413498358501 M341.6844062123686,419.1413498358501 L366.46475874119375,425.5836897225749 M366.46475874119375,425.5836897225749 L393.1968544486824,428.41338242000046 M393.1968544486824,428.41338242000046 L420.3251002988131,427.4655320643007 M420.3251002988131,427.4655320643007 L446.27072305863743,422.79537354751704 M446.27072305863743,422.79537354751704 L469.5240781472051,414.6750361160297 M469.5240781472051,414.6750361160297 L488.73275723330227,403.5775556969372 M488.73275723330227,403.5775556969372 L502.7804197673079,390.14913509897417 M502.7804197673079,390.14913509897417 L510.8516801144422,375.1712952956243 M510.8516801144422,375.1712952956243 L512.4792512599867,359.51519988097124 M512.4792512599867,359.51519988097124 L507.57070644825177,344.0908850989143 M507.57070644825177,344.0908850989143 L496.4133416550034,329.79430254103835 M496.4133416550034,329.79430254103835 L479.6570280268088,317.4553783509819 M479.6570280268088,317.4553783509819 L479.6764970941257,249.97882939946624 M479.6764970941257,249.97882939946624 L496.4369084541799,262.31473345476945 M496.4369084541799,262.31473345476945 L507.5970033300541,276.60781738643556 M507.5970033300541,276.60781738643556 L512.5067512076715,292.02835837826126 M512.5067512076715,292.02835837826126 L510.87878520079715,307.68062415594 M510.87878520079715,307.68062415594 L502.8055539566147,322.6548010430847 M502.8055539566147,322.6548010430847 L488.75445815648527,336.0799383197841 M488.75445815648527,336.0799383197841 L469.54108246835483,347.1747058271402 M469.54108246835483,347.1747058271402 L446.2820403910738,355.2930584214878 M446.2820403910738,355.2930584214878 L420.3300712563589,359.9620755269678 M420.3300712563589,359.9620755269678 L393.1951893464984,360.9096942324873 M393.1951893464984,360.9096942324873 L366.4565546193167,358.0806931081138 M366.4565546193167,358.0806931081138 L341.67014112682045,351.6399278263084 M341.67014112682045,351.6399278263084 L320.27788827414184,341.96265623615466 M320.27788827414184,341.96265623615466 L303.52356445840667,329.6124996890104 M303.52356445840667,329.6124996890104 L292.3803376145737,315.30842834282845 M292.3803376145737,315.30842834282845 L287.4943739953982,299.882682094867 M287.4943739953982,299.882682094867 L289.1475918123944,284.23218567993047 M289.1475918123944,284.23218567993047 L297.24175751705343,269.2663474338468 M297.24175751705343,269.2663474338468 L311.304674606466,255.85420779559837 M311.304674606466,255.85420779559837 L330.518050297342,244.7741193252661 M330.518050297342,244.7741193252661 L353.7652710884592,236.66876437460132 M353.7652710884592,236.66876437460132 L379.6963057607504,232.00808591666993 M379.6963057607504,232.00808591666993 L406.80593585515743,231.06223657290792 M406.80593585515743,231.06223657290792 L433.520786319787,233.88603243732348 M433.520786319787,233.88603243732348 L458.29033178090395,240.31581029853731 M458.29033178090395,240.31581029853731 L479.6764970941257,249.97882939946624" stroke="black"  stroke-width="4"  fill="red"/>
<path d="M479.6570280268088,317.4553783509819 L479.6764970941257,249.97882939946624 M479.6764970941257,249.97882939946624 L496.4369084541799,262.31473345476945 M496.4369084541799,262.31473345476945 L507.5970033300541,276.60781738643556 M507.5970033300541,276.60781738643556 L512.5067512076715,292.02835837826126 M512.5067512076715,292.02835837826126 L510.87878520079715,307.68062415594 M510.87878520079715,307.68062415594 L502.8055539566147,322.6548010430847 M502.8055539566147,322.6548010430847 L488.75445815648527,336.0799383197841 M488.75445815648527,336.0799383197841 L469.54108246835483,347.1747058271402 M469.54108246835483,347.1747058271402 L446.2820403910738,355.2930584214878 M446.2820403910738,355.2930584214878 L420.3300712563589,359.9620755269678 M420.3300712563589,359.9620755269678 L393.1951893464984,360.9096942324873 M393.1951893464984,360.9096942324873 L366.4565546193167,358.0806931081138 M366.4565546193167,358.0806931081138 L341.67014112682045,351.6399278263084 M341.67014112682045,351.6399278263084 L320.27788827414184,341.96265623615466 M320.27788827414184,341.96265623615466 L303.52356445840667,329.6124996890104 M303.52356445840667,329.6124996890104 L292.3803376145737,315.30842834282845 M292.3803376145737,315.30842834282845 L287.4943739953982,299.882682094867 M287.4943739953982,299.882682094867 L289.1475918123944,284.23218567993047 M289.1475918123944,284.23218567993047 L297.24175751705343,269.2663474338468 M297.24175751705343,269.2663474338468 L311.304674606466,255.85420779559837 M311.304674606466,255.85420779559837 L330.518050297342,244.7741193252661 M330.518050297342,244.7741193252661 L353.7652710884592,236.66876437460132 M353.7652710884592,236.66876437460132 L379.6963057607504,232.00808591666993 M379.6963057607504,232.00808591666993 L406.80593585515743,231.06223657290792 M406.80593585515743,231.06223657290792 L433.520786319787,233.88603243732348 M433.520786319787,233.88603243732348 L458.29033178090395,240.31581029853731 M458.29033178090395,240.31581029853731 L479.6764970941257,249.97882939946624 M479.6570280268088,317.4553783509819 L458.27608969883875,307.7899931269235 M458.27608969883875,307.7899931269235 L433.51259695580666,301.3586406627593 M433.51259695580666,301.3586406627593 L406.80427388442706,298.53415322622436 M406.80427388442706,298.53415322622436 L379.70126750592374,299.4802342198496 M379.70126750592374,299.4802342198496 L353.7765689751462,304.1420540875904 M353.7765689751462,304.1420540875904 L330.5350293941531,312.2493938730657 M330.5350293941531,312.2493938730657 L311.3263503053131,323.3321952525026 M311.3263503053131,323.3321952525026 L297.2668722606165,336.7476182096841 M297.2668722606165,336.7476182096841 L289.17468768638076,351.71711937047746 M289.17468768638076,351.71711937047746 L287.5218770745353,367.3714454220709 M287.5218770745353,367.3714454220709 L292.40664925426734,382.8009654611973 M292.40664925426734,382.8009654611973 L303.5471542610612,397.1085354355595 M303.5471542610612,397.1085354355595 L320.29738332070815,409.4617121200128 M320.29738332070815,409.4617121200128 L341.6844062123686,419.1413498358501 M341.6844062123686,419.1413498358501 L366.46475874119375,425.5836897225749 M366.46475874119375,425.5836897225749 L393.1968544486824,428.41338242000046 M393.1968544486824,428.41338242000046 L420.3251002988131,427.4655320643007 M420.3251002988131,427.4655320643007 L446.27072305863743,422.79537354751704 M446.27072305863743,422.79537354751704 L469.5240781472051,414.6750361160297 M469.5240781472051,414.6750361160297 L488.73275723330227,403.5775556969372 M488.73275723330227,403.5775556969372 L502.7804197673079,390.14913509897417 M502.7804197673079,390.14913509897417 L510.8516801144422,375.1712952956243 M510.8516801144422,375.1712952956243 L512.4792512599867,359.51519988097124 M512.4792512599867,359.51519988097124 L507.57070644825177,344.0908850989143 M507.57070644825177,344.0908850989143 L496.4133416550034,329.79430254103835 M496.4133416550034,329.79430254103835 L479.6570280268088,317.4553783509819 M446.47462082309863,336.61325008240374 L434.00166895741575,330.9733773862535 M434.00166895741575,330.9733773862535 L419.554249504908,327.22042195396085 M419.554249504908,327.22042195396085 L403.9715068496695,325.5721720857785 M403.9715068496695,325.5721720857785 L388.15835660485374,326.1242676058157 M388.15835660485374,326.1242676058157 L373.0330732091476,328.8446749829712 M373.0330732091476,328.8446749829712 L359.4740693742135,333.5755336051793 M359.4740693742135,333.5755336051793 L348.2690065670872,340.0422831221589 M348.2690065670872,340.0422831221589 L340.06908059631917,347.8695272238611 M340.06908059631917,347.8695272238611 L335.3511810332363,356.6027500207011 M335.3511810332363,356.6027500207011 L334.3901082696348,365.7346541442274 M334.3901082696348,365.7346541442274 L337.2424490498315,374.7345750765276 M337.2424490498315,374.7345750765276 L343.74312597638306,383.0793221185166 M343.74312597638306,383.0793221185166 L353.5148348920558,390.2836075135016 M353.5148348920558,390.2836075135016 L365.98985719869864,395.92833001572285 M365.98985719869864,395.92833001572285 L380.44301366199403,399.68502422212987 M380.44301366199403,399.68502422212987 L396.0338456162127,401.33504532476 M396.0338456162127,401.33504532476 L411.85558429016754,400.7823477301316 M411.85558429016754,400.7823477301316 L426.9879877360243,398.05910289659374 M426.9879877360243,398.05910289659374 L440.5510121278704,393.3238214660827 M440.5510121278704,393.3238214660827 L451.75607493467913,386.85207699896574 M451.75607493467913,386.85207699896574 L459.95198034817435,379.0204100880412 M459.95198034817435,379.0204100880412 L464.6627598613318,370.28434983652915 M464.6627598613318,370.28434983652915 L465.61524419641097,361.1518436383681 M465.61524419641097,361.1518436383681 L462.7548141177095,352.1536939395314 M462.7548141177095,352.1536939395314 L456.2484001802938,343.81268567142007 M456.2484001802938,343.81268567142007 L446.47462082309863,336.61325008240374 M426.5195105395798,776.7827675428462 L419.4029264099645,773.5543972301421 M419.4029264099645,773.5543972301421 L411.1593773711878,771.4060719650699 M411.1593773711878,771.4060719650699 L402.26779195227994,770.4625389414996 M402.26779195227994,770.4625389414996 L393.24468866362423,770.7785850290496 M393.24468866362423,770.7785850290496 L384.6142216487525,772.3358585105682 M384.6142216487525,772.3358585105682 L376.8777609518219,775.0439355352112 M376.8777609518219,775.0439355352112 L370.4848122909815,778.7455560339677 M370.4848122909815,778.7455560339677 L365.8069094486925,783.2257353148887 M365.8069094486925,783.2257353148887 L363.1160267525192,788.2242235745433 M363.1160267525192,788.2242235745433 L362.5687465042529,793.4506079516434 M362.5687465042529,793.4506079516434 L364.1971154617542,798.6011650367467 M364.1971154617542,798.6011650367467 L367.90672115080633,803.3765155496972 M367.90672115080633,803.3765155496972 L373.4821368006949,807.4990273621856 M373.4821368006949,807.4990273621856 L380.59939489399756,810.7289812736631 M380.59939489399756,810.7289812736631 L388.84481142804486,812.8785273538323 M388.84481142804486,812.8785273538323 L397.7390300520767,813.8226387355157 M397.7390300520767,813.8226387355157 L406.76492902114757,813.5063960532977 M406.76492902114757,813.5063960532977 L415.39771373402453,811.9481960624345 M415.39771373402453,811.9481960624345 L423.1354831908359,809.2386748658502 M423.1354831908359,809.2386748658502 L429.52843185164267,805.5354233748687 M429.52843185164267,805.5354233748687 L434.20502593401267,801.0537999219164 M434.20502593401267,801.0537999219164 L436.8935909322046,796.0543851532101 M436.8935909322046,796.0543851532101 L437.43807550012104,790.8278041817524 M437.43807550012104,790.8278041817524 L435.80707333754617,785.6778254544565 M435.80707333754617,785.6778254544565 L432.0956001532154,780.9036957568813 M432.0956001532154,780.9036957568813 L426.5195105395798,776.7827675428462 M426.5195105395798,776.7827675428462 L427.76498625053273,749.3100833577033 M427.76498625053273,749.3100833577033 L429.010690824292,721.8323509202755 M429.010690824292,721.8323509202755 L430.2566243239457,694.3495688389701 M430.2566243239457,694.3495688389701 L431.50278681260494,666.8617357216824 M431.50278681260494,666.8617357216824 L432.749178353404,639.3688501757964 M432.749178353404,639.3688501757964 L433.99579900950044,611.8709108081842 M433.99579900950044,611.8709108081842 L435.2426488440751,584.3679162252056 M435.2426488440751,584.3679162252056 L436.4897279203319,556.8598650327077 M436.4897279203319,556.8598650327077 L437.73703630149816,529.346755836025 M437.73703630149816,529.346755836025 L438.9845740508243,501.82858723997936 M438.9845740508243,501.82858723997936 L440.2323412315839,474.30535784887905 M440.2323412315839,474.30535784887905 L441.4803379070744,446.77706626651934 M441.4803379070744,446.77706626651934 L442.7285641406158,419.24371109618136 M442.7285641406158,419.24371109618136 L443.9770199955518,391.70529094063295 M443.9770199955518,391.70529094063295 L445.2257055352493,364.16180440212725 M445.2257055352493,364.16180440212725 L446.47462082309863,336.61325008240374" stroke="black"  stroke-width="4"  fill="red"/></svg>